<?xml version="1.0" encoding="UTF-8"?>
<svg width="20px" height="19px" viewBox="0 0 20 19" version="1.1" xmlns="http://www.w3.org/2000/svg" xmlns:xlink="http://www.w3.org/1999/xlink">
    <!-- Generator: Sketch 45.2 (43514) - http://www.bohemiancoding.com/sketch -->
    <title>U</title>
    <desc>Created with Sketch.</desc>
    <defs></defs>
    <g id="Page-1" stroke="none" stroke-width="1" fill="none" fill-rule="evenodd">
        <g id="Mobile" transform="translate(-96.000000, -339.000000)">
            <g id="U" transform="translate(97.000000, 340.000000)">
                <ellipse id="Oval-2-Copy-5" stroke="#979797" cx="8.88309943" cy="8.60147793" rx="8.88309943" ry="8.60147793"></ellipse>
                <path d="M11.5868515,9.39059029 C11.5868515,9.87430062 11.5321179,10.2960479 11.4226492,10.6558448 C11.3131805,11.0156417 11.1335619,11.3149703 10.8837881,11.5538396 C10.6463489,11.7807654 10.3688266,11.9464785 10.0512131,12.0509838 C9.73359955,12.1554891 9.3635699,12.207741 8.94111304,12.207741 C8.50940531,12.207741 8.1332085,12.1525033 7.81251132,12.0420263 C7.49181415,11.9315492 7.22200086,11.7688219 7.00306337,11.5538396 C6.75328961,11.3089985 6.57367105,11.0134022 6.4642023,10.6670417 C6.35473355,10.3206812 6.3,9.89520169 6.3,9.39059029 L6.3,5.4 L7.21583254,5.4 L7.21583254,9.43537806 C7.21583254,9.79666788 7.24127208,10.0818138 7.29215192,10.2908245 C7.34303176,10.4998351 7.42860112,10.6894348 7.54886256,10.8596291 C7.68454213,11.0537104 7.86878606,11.2000157 8.10159988,11.2985493 C8.33441369,11.3970829 8.61424861,11.4463489 8.94111304,11.4463489 C9.2710611,11.4463489 9.55166691,11.3978293 9.78293892,11.3007887 C10.0142109,11.203748 10.1992257,11.0566963 10.3379889,10.8596291 C10.4582504,10.6894348 10.5438197,10.4946099 10.5946996,10.2751487 C10.6455794,10.0556876 10.671019,9.78323137 10.671019,9.45777194 L10.671019,5.4 L11.5868515,5.4 L11.5868515,9.39059029 Z" id="U-Copy" fill="#979797"></path>
            </g>
        </g>
    </g>
</svg>