<svg xmlns="http://www.w3.org/2000/svg" width="28" height="28" viewBox="0 0 28 28"><path fill="#74bbfd" d="M0 14a14 14 0 1 1 28 0 14 14 0 0 1-28 0z"/><path fill="#fff" d="M18.37 15.53c0 .79-.09 1.48-.26 2.06a3.36 3.36 0 0 1-2.17 2.29 5.5 5.5 0 0 1-1.76.25c-.68 0-1.28-.09-1.78-.27a3.28 3.28 0 0 1-2.14-2.25 7.28 7.28 0 0 1-.26-2.08V9h1.45v6.6c0 .59.04 1.06.12 1.4.08.34.22.65.41.93a2 2 0 0 0 .87.72c.37.16.81.24 1.33.24s.97-.08 1.34-.24c.36-.16.65-.4.87-.72.19-.28.33-.6.41-.96.08-.36.12-.8.12-1.33V9h1.45z"/></svg>