<svg xmlns="http://www.w3.org/2000/svg" width="19" height="19" viewBox="0 0 20 20"><path fill="none" stroke="#979797" stroke-miterlimit="50" d="M.5 10a9.5 9.5 0 1 1 19 0 9.5 9.5 0 0 1-19 0z"/><path fill="#979797" d="M12.59 12.44l-.49.23a4.41 4.41 0 0 1-1.23.37 4.48 4.48 0 0 1-2.23-.15 3.05 3.05 0 0 1-1.87-1.9 4.77 4.77 0 0 1-.27-1.68c0-.6.09-1.14.26-1.62a3.16 3.16 0 0 1 1.87-1.94c.44-.17.93-.25 1.47-.25a5.28 5.28 0 0 1 2.49.65v1.16h-.07a4.29 4.29 0 0 0-1.21-.74 3.34 3.34 0 0 0-2.28-.06c-.29.12-.56.31-.79.56-.23.25-.41.56-.53.94-.13.37-.19.81-.19 1.3 0 .52.07.96.21 1.33.14.38.32.68.54.91.23.24.49.42.8.54.31.12.63.18.98.18.47 0 .91-.08 1.32-.25.41-.16.79-.4 1.15-.72h.07z"/></svg>