<svg xmlns="http://www.w3.org/2000/svg" width="19" height="19" viewBox="0 0 21 20"><path fill="none" stroke="#979797" stroke-miterlimit="50" d="M.5 10C.5 4.75 4.98.5 10.5.5s10 4.25 10 9.5-4.48 9.5-10 9.5S.5 15.25.5 10z"/><path fill="#979797" d="M13.37 10.93c0 .54-.06 1.01-.18 1.41a2.26 2.26 0 0 1-1.52 1.55c-.35.12-.77.17-1.24.17-.48 0-.89-.06-1.25-.18a2.26 2.26 0 0 1-1.5-1.53 4.81 4.81 0 0 1-.18-1.42V6.5h1.02v4.48c0 .41.03.72.08.95.06.24.15.45.29.64.15.21.35.37.61.48.26.11.57.17.93.17.37 0 .68-.06.94-.16.26-.11.46-.27.62-.49.13-.19.23-.41.28-.65.06-.25.09-.55.09-.91V6.5h1.01z"/></svg>