<svg xmlns="http://www.w3.org/2000/svg" width="28" height="28" viewBox="0 0 28 28"><path fill="#c8c8c8" d="M0 14a14 14 0 1 1 28 0 14 14 0 0 1-28 0z"/><path fill="#fff" d="M18.05 18.31l-.73.33a7.73 7.73 0 0 1-2.98.66 6.7 6.7 0 0 1-2.16-.33 4.38 4.38 0 0 1-2.78-2.81 7.09 7.09 0 0 1-.4-2.5c0-.9.13-1.7.38-2.41a4.78 4.78 0 0 1 2.78-2.88A6.14 6.14 0 0 1 14.35 8a7.48 7.48 0 0 1 3.7.96v1.72h-.11c-.61-.5-1.2-.87-1.79-1.1a5.17 5.17 0 0 0-1.9-.34c-.55 0-1.05.09-1.49.27-.44.17-.84.45-1.18.83-.34.36-.6.83-.79 1.38a6.05 6.05 0 0 0-.28 1.94c0 .77.1 1.43.31 1.98s.47 1 .8 1.35c.34.36.74.63 1.2.8.46.17.94.26 1.45.26a5.33 5.33 0 0 0 3.67-1.44h.11z"/></svg>